<mxfile host="app.diagrams.net" agent="Mozilla/5.0 (Windows NT 10.0; Win64; x64) AppleWebKit/537.36 (KHTML, like Gecko) Chrome/127.0.0.0 Safari/537.36" version="24.7.5">
  <diagram name="Page-1" id="BwjnC9_RVp00AROXkKl3">
    <mxGraphModel dx="1600" dy="742" grid="1" gridSize="10" guides="1" tooltips="1" connect="1" arrows="1" fold="1" page="1" pageScale="1" pageWidth="850" pageHeight="1100" math="0" shadow="0">
      <root>
        <mxCell id="0" />
        <mxCell id="1" parent="0" />
        <mxCell id="a9j6jrNws50YFNVHfmn5-3" value="" style="edgeStyle=orthogonalEdgeStyle;rounded=0;orthogonalLoop=1;jettySize=auto;html=1;entryX=0;entryY=0.5;entryDx=0;entryDy=0;strokeColor=#FFFFFF;fontColor=#FCFCFC;" edge="1" parent="1" source="a9j6jrNws50YFNVHfmn5-1" target="a9j6jrNws50YFNVHfmn5-2">
          <mxGeometry relative="1" as="geometry" />
        </mxCell>
        <mxCell id="a9j6jrNws50YFNVHfmn5-10" value="" style="edgeStyle=orthogonalEdgeStyle;rounded=0;orthogonalLoop=1;jettySize=auto;html=1;entryX=0;entryY=0.5;entryDx=0;entryDy=0;strokeColor=#FFFFFF;fontColor=#FCFCFC;" edge="1" parent="1" source="a9j6jrNws50YFNVHfmn5-1" target="a9j6jrNws50YFNVHfmn5-9">
          <mxGeometry relative="1" as="geometry" />
        </mxCell>
        <mxCell id="a9j6jrNws50YFNVHfmn5-13" value="" style="edgeStyle=orthogonalEdgeStyle;rounded=0;orthogonalLoop=1;jettySize=auto;html=1;entryX=0;entryY=0.5;entryDx=0;entryDy=0;strokeColor=#FFFFFF;fontColor=#FCFCFC;" edge="1" parent="1" source="a9j6jrNws50YFNVHfmn5-1" target="a9j6jrNws50YFNVHfmn5-11">
          <mxGeometry relative="1" as="geometry" />
        </mxCell>
        <mxCell id="a9j6jrNws50YFNVHfmn5-15" value="" style="edgeStyle=orthogonalEdgeStyle;rounded=0;orthogonalLoop=1;jettySize=auto;html=1;exitX=1;exitY=0.5;exitDx=0;exitDy=0;entryX=0;entryY=0.5;entryDx=0;entryDy=0;strokeColor=#FFFFFF;fontColor=#FCFCFC;" edge="1" parent="1" source="a9j6jrNws50YFNVHfmn5-1" target="a9j6jrNws50YFNVHfmn5-14">
          <mxGeometry relative="1" as="geometry" />
        </mxCell>
        <mxCell id="a9j6jrNws50YFNVHfmn5-17" value="" style="edgeStyle=orthogonalEdgeStyle;rounded=0;orthogonalLoop=1;jettySize=auto;html=1;strokeColor=#FFFFFF;fontColor=#FCFCFC;" edge="1" parent="1" source="a9j6jrNws50YFNVHfmn5-1" target="a9j6jrNws50YFNVHfmn5-16">
          <mxGeometry relative="1" as="geometry" />
        </mxCell>
        <mxCell id="a9j6jrNws50YFNVHfmn5-1" value="Sumber" style="rounded=1;whiteSpace=wrap;html=1;fontSize=11;strokeColor=#FFFFFF;fontColor=#FCFCFC;" vertex="1" parent="1">
          <mxGeometry x="390" y="435" width="120" height="60" as="geometry" />
        </mxCell>
        <mxCell id="a9j6jrNws50YFNVHfmn5-23" value="" style="edgeStyle=orthogonalEdgeStyle;rounded=0;orthogonalLoop=1;jettySize=auto;html=1;strokeColor=#FFFFFF;fontColor=#FCFCFC;" edge="1" parent="1" source="a9j6jrNws50YFNVHfmn5-2" target="a9j6jrNws50YFNVHfmn5-22">
          <mxGeometry relative="1" as="geometry" />
        </mxCell>
        <mxCell id="a9j6jrNws50YFNVHfmn5-2" value="Kebutuhan Domestik Karyawan (2m&lt;sup style=&quot;font-size: 11px;&quot;&gt;3&lt;/sup&gt;/hari)" style="whiteSpace=wrap;html=1;rounded=1;fontSize=11;strokeColor=#FFFFFF;fontColor=#FCFCFC;" vertex="1" parent="1">
          <mxGeometry x="550" y="255" width="120" height="60" as="geometry" />
        </mxCell>
        <mxCell id="a9j6jrNws50YFNVHfmn5-9" value="Kebutuhan Pengunjung Rawat Jalan (0,3 m&lt;sup style=&quot;font-size: 11px;&quot;&gt;3&lt;/sup&gt;/hari)" style="whiteSpace=wrap;html=1;rounded=1;fontSize=11;strokeColor=#FFFFFF;fontColor=#FCFCFC;" vertex="1" parent="1">
          <mxGeometry x="550" y="335" width="120" height="60" as="geometry" />
        </mxCell>
        <mxCell id="a9j6jrNws50YFNVHfmn5-14" value="Kebersihan Gedung (0,469 m&lt;sup style=&quot;font-size: 11px;&quot;&gt;3&lt;/sup&gt;/hari)" style="whiteSpace=wrap;html=1;rounded=1;fontSize=11;strokeColor=#FFFFFF;fontColor=#FCFCFC;" vertex="1" parent="1">
          <mxGeometry x="550" y="645" width="120" height="60" as="geometry" />
        </mxCell>
        <mxCell id="a9j6jrNws50YFNVHfmn5-18" value="" style="edgeStyle=orthogonalEdgeStyle;rounded=0;orthogonalLoop=1;jettySize=auto;html=1;strokeColor=#FFFFFF;fontColor=#FCFCFC;" edge="1" parent="1" source="a9j6jrNws50YFNVHfmn5-1" target="a9j6jrNws50YFNVHfmn5-16">
          <mxGeometry relative="1" as="geometry">
            <mxPoint x="510" y="465" as="sourcePoint" />
            <mxPoint x="590" y="735" as="targetPoint" />
          </mxGeometry>
        </mxCell>
        <mxCell id="a9j6jrNws50YFNVHfmn5-16" value="Kebutuhan Pengunjung Rawat Inap (0,2 m&lt;sup&gt;3&lt;/sup&gt;/ hari)" style="whiteSpace=wrap;html=1;rounded=1;fontSize=11;strokeColor=#FFFFFF;fontColor=#FCFCFC;" vertex="1" parent="1">
          <mxGeometry x="550" y="405" width="120" height="60" as="geometry" />
        </mxCell>
        <mxCell id="a9j6jrNws50YFNVHfmn5-11" value="&lt;font style=&quot;font-size: 11px;&quot;&gt;Laboratorium (0,3 m&lt;sup style=&quot;font-size: 11px;&quot;&gt;3&lt;/sup&gt;/hari)&lt;/font&gt;" style="whiteSpace=wrap;html=1;rounded=1;fontSize=11;strokeColor=#FFFFFF;fontColor=#FCFCFC;" vertex="1" parent="1">
          <mxGeometry x="550" y="485" width="120" height="60" as="geometry" />
        </mxCell>
        <mxCell id="a9j6jrNws50YFNVHfmn5-21" value="" style="edgeStyle=orthogonalEdgeStyle;rounded=0;orthogonalLoop=1;jettySize=auto;html=1;entryX=0;entryY=0.5;entryDx=0;entryDy=0;exitX=1;exitY=0.5;exitDx=0;exitDy=0;strokeColor=#FFFFFF;fontColor=#FCFCFC;" edge="1" parent="1" source="a9j6jrNws50YFNVHfmn5-1" target="a9j6jrNws50YFNVHfmn5-4">
          <mxGeometry relative="1" as="geometry">
            <mxPoint x="610" y="625" as="sourcePoint" />
            <mxPoint x="590" y="735" as="targetPoint" />
          </mxGeometry>
        </mxCell>
        <mxCell id="a9j6jrNws50YFNVHfmn5-4" value="Mushola (0,05 m&lt;sup style=&quot;font-size: 11px;&quot;&gt;3&lt;/sup&gt;/hari)" style="whiteSpace=wrap;html=1;rounded=1;fontSize=11;strokeColor=#FFFFFF;fontColor=#FCFCFC;" vertex="1" parent="1">
          <mxGeometry x="550" y="565" width="120" height="60" as="geometry" />
        </mxCell>
        <mxCell id="a9j6jrNws50YFNVHfmn5-22" value="20% Hilang (0,4 m&lt;sup style=&quot;font-size: 10px;&quot;&gt;3&lt;/sup&gt;/hari)" style="whiteSpace=wrap;html=1;fontSize=10;rounded=1;strokeColor=#FFFFFF;fontColor=#FCFCFC;" vertex="1" parent="1">
          <mxGeometry x="710" y="250" width="120" height="30" as="geometry" />
        </mxCell>
        <mxCell id="a9j6jrNws50YFNVHfmn5-24" value="Domestik Karyawan (1,6 m&lt;sup&gt;3&lt;/sup&gt;/hari)" style="whiteSpace=wrap;html=1;fontSize=11;rounded=1;strokeColor=#FFFFFF;fontColor=#FCFCFC;" vertex="1" parent="1">
          <mxGeometry x="710" y="290" width="120" height="30" as="geometry" />
        </mxCell>
        <mxCell id="a9j6jrNws50YFNVHfmn5-25" value="" style="edgeStyle=orthogonalEdgeStyle;rounded=0;orthogonalLoop=1;jettySize=auto;html=1;entryX=0;entryY=0.5;entryDx=0;entryDy=0;exitX=1;exitY=0.5;exitDx=0;exitDy=0;strokeColor=#FFFFFF;fontColor=#FCFCFC;" edge="1" parent="1" source="a9j6jrNws50YFNVHfmn5-2" target="a9j6jrNws50YFNVHfmn5-24">
          <mxGeometry relative="1" as="geometry">
            <mxPoint x="680" y="295" as="sourcePoint" />
            <mxPoint x="700" y="275" as="targetPoint" />
            <Array as="points">
              <mxPoint x="690" y="285" />
              <mxPoint x="690" y="305" />
            </Array>
          </mxGeometry>
        </mxCell>
        <mxCell id="a9j6jrNws50YFNVHfmn5-26" value="" style="edgeStyle=orthogonalEdgeStyle;rounded=0;orthogonalLoop=1;jettySize=auto;html=1;entryX=0;entryY=0.5;entryDx=0;entryDy=0;strokeColor=#FFFFFF;fontColor=#FCFCFC;" edge="1" parent="1" target="a9j6jrNws50YFNVHfmn5-27">
          <mxGeometry relative="1" as="geometry">
            <mxPoint x="670" y="365" as="sourcePoint" />
            <Array as="points">
              <mxPoint x="670" y="366" />
              <mxPoint x="690" y="366" />
              <mxPoint x="690" y="345" />
            </Array>
          </mxGeometry>
        </mxCell>
        <mxCell id="a9j6jrNws50YFNVHfmn5-27" value="20% Hilang (0,06 m&lt;sup&gt;3&lt;/sup&gt;/hari)" style="whiteSpace=wrap;html=1;fontSize=11;rounded=1;strokeColor=#FFFFFF;fontColor=#FCFCFC;" vertex="1" parent="1">
          <mxGeometry x="710" y="330" width="120" height="30" as="geometry" />
        </mxCell>
        <mxCell id="a9j6jrNws50YFNVHfmn5-28" value="Pengunjung Rawat Jalan (0,24 m&lt;sup&gt;3&lt;/sup&gt;/hari)" style="whiteSpace=wrap;html=1;fontSize=11;rounded=1;strokeColor=#FFFFFF;fontColor=#FCFCFC;" vertex="1" parent="1">
          <mxGeometry x="710" y="370" width="120" height="30" as="geometry" />
        </mxCell>
        <mxCell id="a9j6jrNws50YFNVHfmn5-29" value="" style="edgeStyle=orthogonalEdgeStyle;rounded=0;orthogonalLoop=1;jettySize=auto;html=1;entryX=0;entryY=0.5;entryDx=0;entryDy=0;exitX=1;exitY=0.5;exitDx=0;exitDy=0;strokeColor=#FFFFFF;fontColor=#FCFCFC;" edge="1" parent="1" target="a9j6jrNws50YFNVHfmn5-28">
          <mxGeometry relative="1" as="geometry">
            <mxPoint x="670" y="365" as="sourcePoint" />
            <mxPoint x="700" y="355" as="targetPoint" />
            <Array as="points">
              <mxPoint x="690" y="365" />
              <mxPoint x="690" y="385" />
            </Array>
          </mxGeometry>
        </mxCell>
        <mxCell id="a9j6jrNws50YFNVHfmn5-30" value="" style="edgeStyle=orthogonalEdgeStyle;rounded=0;orthogonalLoop=1;jettySize=auto;html=1;entryX=0;entryY=0.5;entryDx=0;entryDy=0;strokeColor=#FFFFFF;fontColor=#FCFCFC;" edge="1" parent="1" target="a9j6jrNws50YFNVHfmn5-31">
          <mxGeometry relative="1" as="geometry">
            <mxPoint x="670" y="440" as="sourcePoint" />
            <Array as="points">
              <mxPoint x="670" y="441" />
              <mxPoint x="690" y="441" />
              <mxPoint x="690" y="420" />
            </Array>
          </mxGeometry>
        </mxCell>
        <mxCell id="a9j6jrNws50YFNVHfmn5-31" value="20% Hilang (0,04 m&lt;sup&gt;3&lt;/sup&gt;/hari)" style="whiteSpace=wrap;html=1;fontSize=11;rounded=1;strokeColor=#FFFFFF;fontColor=#FCFCFC;" vertex="1" parent="1">
          <mxGeometry x="710" y="405" width="120" height="30" as="geometry" />
        </mxCell>
        <mxCell id="a9j6jrNws50YFNVHfmn5-32" value="Pengunjung Rawat Inap (0,16 m&lt;sup&gt;3&lt;/sup&gt;/hari)" style="whiteSpace=wrap;html=1;fontSize=11;rounded=1;strokeColor=#FFFFFF;fontColor=#FCFCFC;" vertex="1" parent="1">
          <mxGeometry x="710" y="445" width="120" height="30" as="geometry" />
        </mxCell>
        <mxCell id="a9j6jrNws50YFNVHfmn5-33" value="" style="edgeStyle=orthogonalEdgeStyle;rounded=0;orthogonalLoop=1;jettySize=auto;html=1;entryX=0;entryY=0.5;entryDx=0;entryDy=0;exitX=1;exitY=0.5;exitDx=0;exitDy=0;strokeColor=#FFFFFF;fontColor=#FCFCFC;" edge="1" parent="1" target="a9j6jrNws50YFNVHfmn5-32">
          <mxGeometry relative="1" as="geometry">
            <mxPoint x="670" y="440" as="sourcePoint" />
            <mxPoint x="700" y="430" as="targetPoint" />
            <Array as="points">
              <mxPoint x="690" y="440" />
              <mxPoint x="690" y="460" />
            </Array>
          </mxGeometry>
        </mxCell>
        <mxCell id="a9j6jrNws50YFNVHfmn5-34" value="" style="edgeStyle=orthogonalEdgeStyle;rounded=0;orthogonalLoop=1;jettySize=auto;html=1;entryX=0;entryY=0.5;entryDx=0;entryDy=0;strokeColor=#FFFFFF;fontColor=#FCFCFC;" edge="1" parent="1" target="a9j6jrNws50YFNVHfmn5-35">
          <mxGeometry relative="1" as="geometry">
            <mxPoint x="670" y="515" as="sourcePoint" />
            <Array as="points">
              <mxPoint x="670" y="516" />
              <mxPoint x="690" y="516" />
              <mxPoint x="690" y="495" />
            </Array>
          </mxGeometry>
        </mxCell>
        <mxCell id="a9j6jrNws50YFNVHfmn5-35" value="20% Hilang (0,06 m&lt;sup&gt;3&lt;/sup&gt;/hari)" style="whiteSpace=wrap;html=1;fontSize=11;rounded=1;strokeColor=#FFFFFF;fontColor=#FCFCFC;" vertex="1" parent="1">
          <mxGeometry x="710" y="480" width="120" height="30" as="geometry" />
        </mxCell>
        <mxCell id="a9j6jrNws50YFNVHfmn5-36" value="Laboratorium (0,24 m&lt;sup&gt;3&lt;/sup&gt;/hari)" style="whiteSpace=wrap;html=1;fontSize=11;rounded=1;strokeColor=#FFFFFF;fontColor=#FCFCFC;" vertex="1" parent="1">
          <mxGeometry x="710" y="520" width="120" height="30" as="geometry" />
        </mxCell>
        <mxCell id="a9j6jrNws50YFNVHfmn5-37" value="" style="edgeStyle=orthogonalEdgeStyle;rounded=0;orthogonalLoop=1;jettySize=auto;html=1;entryX=0;entryY=0.5;entryDx=0;entryDy=0;exitX=1;exitY=0.5;exitDx=0;exitDy=0;strokeColor=#FFFFFF;fontColor=#FCFCFC;" edge="1" parent="1" target="a9j6jrNws50YFNVHfmn5-36">
          <mxGeometry relative="1" as="geometry">
            <mxPoint x="670" y="515" as="sourcePoint" />
            <mxPoint x="700" y="505" as="targetPoint" />
            <Array as="points">
              <mxPoint x="690" y="515" />
              <mxPoint x="690" y="535" />
            </Array>
          </mxGeometry>
        </mxCell>
        <mxCell id="a9j6jrNws50YFNVHfmn5-38" value="" style="edgeStyle=orthogonalEdgeStyle;rounded=0;orthogonalLoop=1;jettySize=auto;html=1;entryX=0;entryY=0.5;entryDx=0;entryDy=0;strokeColor=#FFFFFF;fontColor=#FCFCFC;" edge="1" parent="1" target="a9j6jrNws50YFNVHfmn5-39">
          <mxGeometry relative="1" as="geometry">
            <mxPoint x="670" y="595" as="sourcePoint" />
            <Array as="points">
              <mxPoint x="670" y="596" />
              <mxPoint x="690" y="596" />
              <mxPoint x="690" y="575" />
            </Array>
          </mxGeometry>
        </mxCell>
        <mxCell id="a9j6jrNws50YFNVHfmn5-39" value="20% Hilang (0,01 m&lt;sup&gt;3&lt;/sup&gt;/hari)" style="whiteSpace=wrap;html=1;fontSize=11;rounded=1;strokeColor=#FFFFFF;fontColor=#FCFCFC;" vertex="1" parent="1">
          <mxGeometry x="710" y="560" width="120" height="30" as="geometry" />
        </mxCell>
        <mxCell id="a9j6jrNws50YFNVHfmn5-40" value="Mushola (0,04 m&lt;sup&gt;3&lt;/sup&gt;/hari)" style="whiteSpace=wrap;html=1;fontSize=11;rounded=1;strokeColor=#FFFFFF;fontColor=#FCFCFC;" vertex="1" parent="1">
          <mxGeometry x="710" y="600" width="120" height="30" as="geometry" />
        </mxCell>
        <mxCell id="a9j6jrNws50YFNVHfmn5-41" value="" style="edgeStyle=orthogonalEdgeStyle;rounded=0;orthogonalLoop=1;jettySize=auto;html=1;entryX=0;entryY=0.5;entryDx=0;entryDy=0;exitX=1;exitY=0.5;exitDx=0;exitDy=0;strokeColor=#FFFFFF;fontColor=#FCFCFC;" edge="1" parent="1" target="a9j6jrNws50YFNVHfmn5-40">
          <mxGeometry relative="1" as="geometry">
            <mxPoint x="670" y="595" as="sourcePoint" />
            <mxPoint x="700" y="585" as="targetPoint" />
            <Array as="points">
              <mxPoint x="690" y="595" />
              <mxPoint x="690" y="615" />
            </Array>
          </mxGeometry>
        </mxCell>
        <mxCell id="a9j6jrNws50YFNVHfmn5-42" value="" style="edgeStyle=orthogonalEdgeStyle;rounded=0;orthogonalLoop=1;jettySize=auto;html=1;entryX=0;entryY=0.5;entryDx=0;entryDy=0;strokeColor=#FFFFFF;fontColor=#FCFCFC;" edge="1" parent="1" target="a9j6jrNws50YFNVHfmn5-43">
          <mxGeometry relative="1" as="geometry">
            <mxPoint x="670" y="675" as="sourcePoint" />
            <Array as="points">
              <mxPoint x="670" y="676" />
              <mxPoint x="690" y="676" />
              <mxPoint x="690" y="655" />
            </Array>
          </mxGeometry>
        </mxCell>
        <mxCell id="a9j6jrNws50YFNVHfmn5-43" value="20% Hilang (0,094 m&lt;sup&gt;3&lt;/sup&gt;/hari)" style="whiteSpace=wrap;html=1;fontSize=11;rounded=1;strokeColor=#FFFFFF;fontColor=#FCFCFC;" vertex="1" parent="1">
          <mxGeometry x="710" y="640" width="120" height="30" as="geometry" />
        </mxCell>
        <mxCell id="a9j6jrNws50YFNVHfmn5-44" value="Kebersihan Gedung (0,375 m&lt;sup&gt;3&lt;/sup&gt;/hari)" style="whiteSpace=wrap;html=1;fontSize=11;rounded=1;strokeColor=#FFFFFF;fontColor=#FCFCFC;" vertex="1" parent="1">
          <mxGeometry x="710" y="680" width="120" height="30" as="geometry" />
        </mxCell>
        <mxCell id="a9j6jrNws50YFNVHfmn5-45" value="" style="edgeStyle=orthogonalEdgeStyle;rounded=0;orthogonalLoop=1;jettySize=auto;html=1;entryX=0;entryY=0.5;entryDx=0;entryDy=0;exitX=1;exitY=0.5;exitDx=0;exitDy=0;strokeColor=#FFFFFF;fontColor=#FCFCFC;" edge="1" parent="1" target="a9j6jrNws50YFNVHfmn5-44">
          <mxGeometry relative="1" as="geometry">
            <mxPoint x="670" y="675" as="sourcePoint" />
            <mxPoint x="700" y="665" as="targetPoint" />
            <Array as="points">
              <mxPoint x="690" y="675" />
              <mxPoint x="690" y="695" />
            </Array>
          </mxGeometry>
        </mxCell>
        <mxCell id="a9j6jrNws50YFNVHfmn5-46" value="75% Grey Water (1,2 m&lt;sup&gt;3&lt;/sup&gt;/hari)" style="whiteSpace=wrap;html=1;fontSize=11;rounded=1;strokeColor=#FFFFFF;fontColor=#FCFCFC;" vertex="1" parent="1">
          <mxGeometry x="870" y="250" width="120" height="30" as="geometry" />
        </mxCell>
        <mxCell id="a9j6jrNws50YFNVHfmn5-49" value="" style="edgeStyle=orthogonalEdgeStyle;rounded=0;orthogonalLoop=1;jettySize=auto;html=1;exitX=1;exitY=0.5;exitDx=0;exitDy=0;entryX=0;entryY=0.5;entryDx=0;entryDy=0;strokeColor=#FFFFFF;fontColor=#FCFCFC;" edge="1" parent="1" source="a9j6jrNws50YFNVHfmn5-24" target="a9j6jrNws50YFNVHfmn5-46">
          <mxGeometry relative="1" as="geometry">
            <mxPoint x="840" y="300" as="sourcePoint" />
            <mxPoint x="920" y="275" as="targetPoint" />
          </mxGeometry>
        </mxCell>
        <mxCell id="a9j6jrNws50YFNVHfmn5-48" value="25% Black Water (0,4 m&lt;sup&gt;3&lt;/sup&gt;/hari)" style="whiteSpace=wrap;html=1;fontSize=11;rounded=1;strokeColor=#FFFFFF;fontColor=#FCFCFC;" vertex="1" parent="1">
          <mxGeometry x="870" y="290" width="120" height="30" as="geometry" />
        </mxCell>
        <mxCell id="a9j6jrNws50YFNVHfmn5-51" value="" style="edgeStyle=orthogonalEdgeStyle;rounded=0;orthogonalLoop=1;jettySize=auto;html=1;exitX=1;exitY=0.5;exitDx=0;exitDy=0;entryX=0;entryY=0.5;entryDx=0;entryDy=0;strokeColor=#FFFFFF;fontColor=#FCFCFC;" edge="1" parent="1" source="a9j6jrNws50YFNVHfmn5-24" target="a9j6jrNws50YFNVHfmn5-48">
          <mxGeometry relative="1" as="geometry">
            <mxPoint x="840" y="315" as="sourcePoint" />
            <mxPoint x="880" y="275" as="targetPoint" />
          </mxGeometry>
        </mxCell>
        <mxCell id="a9j6jrNws50YFNVHfmn5-56" value="75% Grey Water (0,18 m&lt;sup&gt;3&lt;/sup&gt;/hari)" style="whiteSpace=wrap;html=1;fontSize=11;rounded=1;strokeColor=#FFFFFF;fontColor=#FCFCFC;" vertex="1" parent="1">
          <mxGeometry x="870" y="330" width="120" height="30" as="geometry" />
        </mxCell>
        <mxCell id="a9j6jrNws50YFNVHfmn5-57" value="" style="edgeStyle=orthogonalEdgeStyle;rounded=0;orthogonalLoop=1;jettySize=auto;html=1;exitX=1;exitY=0.5;exitDx=0;exitDy=0;entryX=0;entryY=0.5;entryDx=0;entryDy=0;strokeColor=#FFFFFF;fontColor=#FCFCFC;" edge="1" parent="1" target="a9j6jrNws50YFNVHfmn5-56">
          <mxGeometry relative="1" as="geometry">
            <mxPoint x="830" y="385" as="sourcePoint" />
            <mxPoint x="920" y="355" as="targetPoint" />
            <Array as="points">
              <mxPoint x="851" y="385" />
              <mxPoint x="851" y="345" />
            </Array>
          </mxGeometry>
        </mxCell>
        <mxCell id="a9j6jrNws50YFNVHfmn5-58" value="25% Black Water (0,06 m&lt;sup&gt;3&lt;/sup&gt;/hari)" style="whiteSpace=wrap;html=1;fontSize=11;rounded=1;strokeColor=#FFFFFF;fontColor=#FCFCFC;" vertex="1" parent="1">
          <mxGeometry x="870" y="370" width="120" height="30" as="geometry" />
        </mxCell>
        <mxCell id="a9j6jrNws50YFNVHfmn5-59" value="" style="edgeStyle=orthogonalEdgeStyle;rounded=0;orthogonalLoop=1;jettySize=auto;html=1;exitX=1;exitY=0.5;exitDx=0;exitDy=0;entryX=0;entryY=0.5;entryDx=0;entryDy=0;strokeColor=#FFFFFF;fontColor=#FCFCFC;" edge="1" parent="1" target="a9j6jrNws50YFNVHfmn5-58">
          <mxGeometry relative="1" as="geometry">
            <mxPoint x="830" y="385" as="sourcePoint" />
            <mxPoint x="880" y="355" as="targetPoint" />
            <Array as="points">
              <mxPoint x="840" y="385" />
              <mxPoint x="840" y="385" />
            </Array>
          </mxGeometry>
        </mxCell>
        <mxCell id="a9j6jrNws50YFNVHfmn5-60" value="75% Grey Water (0,12 m&lt;sup&gt;3&lt;/sup&gt;/hari)" style="whiteSpace=wrap;html=1;fontSize=11;rounded=1;strokeColor=#FFFFFF;fontColor=#FCFCFC;" vertex="1" parent="1">
          <mxGeometry x="870" y="405" width="120" height="30" as="geometry" />
        </mxCell>
        <mxCell id="a9j6jrNws50YFNVHfmn5-61" value="" style="edgeStyle=orthogonalEdgeStyle;rounded=0;orthogonalLoop=1;jettySize=auto;html=1;exitX=1;exitY=0.5;exitDx=0;exitDy=0;entryX=0;entryY=0.5;entryDx=0;entryDy=0;strokeColor=#FFFFFF;fontColor=#FCFCFC;" edge="1" parent="1" target="a9j6jrNws50YFNVHfmn5-60">
          <mxGeometry relative="1" as="geometry">
            <mxPoint x="830" y="460" as="sourcePoint" />
            <mxPoint x="920" y="430" as="targetPoint" />
            <Array as="points">
              <mxPoint x="851" y="460" />
              <mxPoint x="851" y="420" />
            </Array>
          </mxGeometry>
        </mxCell>
        <mxCell id="a9j6jrNws50YFNVHfmn5-62" value="25% Black Water (0,04 m&lt;sup&gt;3&lt;/sup&gt;/hari)" style="whiteSpace=wrap;html=1;fontSize=11;rounded=1;strokeColor=#FFFFFF;fontColor=#FCFCFC;" vertex="1" parent="1">
          <mxGeometry x="870" y="445" width="120" height="30" as="geometry" />
        </mxCell>
        <mxCell id="a9j6jrNws50YFNVHfmn5-63" value="" style="edgeStyle=orthogonalEdgeStyle;rounded=0;orthogonalLoop=1;jettySize=auto;html=1;exitX=1;exitY=0.5;exitDx=0;exitDy=0;entryX=0;entryY=0.5;entryDx=0;entryDy=0;strokeColor=#FFFFFF;fontColor=#FCFCFC;" edge="1" parent="1" target="a9j6jrNws50YFNVHfmn5-62">
          <mxGeometry relative="1" as="geometry">
            <mxPoint x="830" y="460" as="sourcePoint" />
            <mxPoint x="880" y="430" as="targetPoint" />
            <Array as="points">
              <mxPoint x="840" y="460" />
              <mxPoint x="840" y="460" />
            </Array>
          </mxGeometry>
        </mxCell>
        <mxCell id="a9j6jrNws50YFNVHfmn5-64" value="75% Grey Water (0,18 m&lt;sup&gt;3&lt;/sup&gt;/hari)" style="whiteSpace=wrap;html=1;fontSize=11;rounded=1;strokeColor=#FFFFFF;fontColor=#FCFCFC;" vertex="1" parent="1">
          <mxGeometry x="870" y="480" width="120" height="30" as="geometry" />
        </mxCell>
        <mxCell id="a9j6jrNws50YFNVHfmn5-65" value="" style="edgeStyle=orthogonalEdgeStyle;rounded=0;orthogonalLoop=1;jettySize=auto;html=1;exitX=1;exitY=0.5;exitDx=0;exitDy=0;entryX=0;entryY=0.5;entryDx=0;entryDy=0;strokeColor=#FFFFFF;fontColor=#FCFCFC;" edge="1" parent="1" target="a9j6jrNws50YFNVHfmn5-64">
          <mxGeometry relative="1" as="geometry">
            <mxPoint x="830" y="535" as="sourcePoint" />
            <mxPoint x="920" y="505" as="targetPoint" />
            <Array as="points">
              <mxPoint x="851" y="535" />
              <mxPoint x="851" y="495" />
            </Array>
          </mxGeometry>
        </mxCell>
        <mxCell id="a9j6jrNws50YFNVHfmn5-66" value="25% Black Water (0,06 m&lt;sup&gt;3&lt;/sup&gt;/hari)" style="whiteSpace=wrap;html=1;fontSize=11;rounded=1;strokeColor=#FFFFFF;fontColor=#FCFCFC;" vertex="1" parent="1">
          <mxGeometry x="870" y="520" width="120" height="30" as="geometry" />
        </mxCell>
        <mxCell id="a9j6jrNws50YFNVHfmn5-67" value="" style="edgeStyle=orthogonalEdgeStyle;rounded=0;orthogonalLoop=1;jettySize=auto;html=1;exitX=1;exitY=0.5;exitDx=0;exitDy=0;entryX=0;entryY=0.5;entryDx=0;entryDy=0;strokeColor=#FFFFFF;fontColor=#FCFCFC;" edge="1" parent="1" target="a9j6jrNws50YFNVHfmn5-66">
          <mxGeometry relative="1" as="geometry">
            <mxPoint x="830" y="535" as="sourcePoint" />
            <mxPoint x="880" y="505" as="targetPoint" />
            <Array as="points">
              <mxPoint x="840" y="535" />
              <mxPoint x="840" y="535" />
            </Array>
          </mxGeometry>
        </mxCell>
        <mxCell id="a9j6jrNws50YFNVHfmn5-70" value="100% Grey Water (0,04 m&lt;sup&gt;3&lt;/sup&gt;/hari)" style="whiteSpace=wrap;html=1;fontSize=11;rounded=1;strokeColor=#FFFFFF;fontColor=#FCFCFC;" vertex="1" parent="1">
          <mxGeometry x="870" y="600" width="120" height="30" as="geometry" />
        </mxCell>
        <mxCell id="a9j6jrNws50YFNVHfmn5-71" value="" style="edgeStyle=orthogonalEdgeStyle;rounded=0;orthogonalLoop=1;jettySize=auto;html=1;exitX=1;exitY=0.5;exitDx=0;exitDy=0;entryX=0;entryY=0.5;entryDx=0;entryDy=0;strokeColor=#FFFFFF;fontColor=#FCFCFC;" edge="1" parent="1" target="a9j6jrNws50YFNVHfmn5-70">
          <mxGeometry relative="1" as="geometry">
            <mxPoint x="830" y="615" as="sourcePoint" />
            <mxPoint x="880" y="585" as="targetPoint" />
            <Array as="points">
              <mxPoint x="840" y="615" />
              <mxPoint x="840" y="615" />
            </Array>
          </mxGeometry>
        </mxCell>
        <mxCell id="a9j6jrNws50YFNVHfmn5-74" value="100% Grey Water (0,375 m&lt;sup&gt;3&lt;/sup&gt;/hari)" style="whiteSpace=wrap;html=1;fontSize=11;rounded=1;strokeColor=#FFFFFF;fontColor=#FCFCFC;" vertex="1" parent="1">
          <mxGeometry x="870" y="675" width="120" height="30" as="geometry" />
        </mxCell>
        <mxCell id="a9j6jrNws50YFNVHfmn5-75" value="" style="edgeStyle=orthogonalEdgeStyle;rounded=0;orthogonalLoop=1;jettySize=auto;html=1;exitX=1;exitY=0.5;exitDx=0;exitDy=0;entryX=0;entryY=0.5;entryDx=0;entryDy=0;strokeColor=#FFFFFF;fontColor=#FCFCFC;" edge="1" parent="1" target="a9j6jrNws50YFNVHfmn5-74">
          <mxGeometry relative="1" as="geometry">
            <mxPoint x="830" y="690" as="sourcePoint" />
            <mxPoint x="880" y="660" as="targetPoint" />
            <Array as="points">
              <mxPoint x="840" y="690" />
              <mxPoint x="840" y="690" />
            </Array>
          </mxGeometry>
        </mxCell>
        <mxCell id="a9j6jrNws50YFNVHfmn5-79" value="" style="edgeStyle=orthogonalEdgeStyle;rounded=0;orthogonalLoop=1;jettySize=auto;html=1;strokeColor=#FFFFFF;fontColor=#FCFCFC;" edge="1" parent="1" source="a9j6jrNws50YFNVHfmn5-76" target="a9j6jrNws50YFNVHfmn5-78">
          <mxGeometry relative="1" as="geometry" />
        </mxCell>
        <mxCell id="a9j6jrNws50YFNVHfmn5-76" value="Septic Tank Black Water (0,56 m&lt;sup&gt;3&lt;/sup&gt;/hari)" style="whiteSpace=wrap;html=1;fontSize=11;rounded=1;strokeColor=#FFFFFF;fontColor=#FCFCFC;" vertex="1" parent="1">
          <mxGeometry x="1077.5" y="292.5" width="90" height="55" as="geometry" />
        </mxCell>
        <mxCell id="a9j6jrNws50YFNVHfmn5-77" value="" style="edgeStyle=orthogonalEdgeStyle;rounded=0;orthogonalLoop=1;jettySize=auto;html=1;exitX=1;exitY=0.5;exitDx=0;exitDy=0;entryX=0;entryY=0.5;entryDx=0;entryDy=0;strokeColor=#c70000;" edge="1" parent="1" source="a9j6jrNws50YFNVHfmn5-48" target="a9j6jrNws50YFNVHfmn5-76">
          <mxGeometry relative="1" as="geometry">
            <mxPoint x="1010" y="360" as="sourcePoint" />
            <mxPoint x="1040" y="380" as="targetPoint" />
          </mxGeometry>
        </mxCell>
        <mxCell id="a9j6jrNws50YFNVHfmn5-78" value="Pihak Ketiga" style="whiteSpace=wrap;html=1;fontSize=11;rounded=1;strokeColor=#FFFFFF;fontColor=#FCFCFC;" vertex="1" parent="1">
          <mxGeometry x="1197.5" y="290" width="95" height="60" as="geometry" />
        </mxCell>
        <mxCell id="a9j6jrNws50YFNVHfmn5-81" value="" style="edgeStyle=orthogonalEdgeStyle;rounded=0;orthogonalLoop=1;jettySize=auto;html=1;exitX=1;exitY=0.5;exitDx=0;exitDy=0;entryX=0;entryY=0.5;entryDx=0;entryDy=0;strokeColor=#c70000;" edge="1" parent="1" source="a9j6jrNws50YFNVHfmn5-58" target="a9j6jrNws50YFNVHfmn5-76">
          <mxGeometry relative="1" as="geometry">
            <mxPoint x="1000" y="315" as="sourcePoint" />
            <mxPoint x="1110" y="310" as="targetPoint" />
          </mxGeometry>
        </mxCell>
        <mxCell id="a9j6jrNws50YFNVHfmn5-82" value="" style="edgeStyle=orthogonalEdgeStyle;rounded=0;orthogonalLoop=1;jettySize=auto;html=1;exitX=1;exitY=0.5;exitDx=0;exitDy=0;entryX=0;entryY=0.5;entryDx=0;entryDy=0;strokeColor=#c70000;" edge="1" parent="1" source="a9j6jrNws50YFNVHfmn5-62" target="a9j6jrNws50YFNVHfmn5-76">
          <mxGeometry relative="1" as="geometry">
            <mxPoint x="1010" y="325" as="sourcePoint" />
            <mxPoint x="1120" y="320" as="targetPoint" />
          </mxGeometry>
        </mxCell>
        <mxCell id="a9j6jrNws50YFNVHfmn5-83" value="" style="edgeStyle=orthogonalEdgeStyle;rounded=0;orthogonalLoop=1;jettySize=auto;html=1;exitX=1;exitY=0.5;exitDx=0;exitDy=0;entryX=0;entryY=0.5;entryDx=0;entryDy=0;strokeColor=#c70000;" edge="1" parent="1" source="a9j6jrNws50YFNVHfmn5-66" target="a9j6jrNws50YFNVHfmn5-76">
          <mxGeometry relative="1" as="geometry">
            <mxPoint x="1020" y="335" as="sourcePoint" />
            <mxPoint x="1130" y="330" as="targetPoint" />
          </mxGeometry>
        </mxCell>
        <mxCell id="a9j6jrNws50YFNVHfmn5-84" value="" style="edgeStyle=orthogonalEdgeStyle;rounded=0;orthogonalLoop=1;jettySize=auto;html=1;strokeColor=#FFFFFF;fontColor=#FCFCFC;" edge="1" parent="1" source="a9j6jrNws50YFNVHfmn5-85" target="a9j6jrNws50YFNVHfmn5-86">
          <mxGeometry relative="1" as="geometry" />
        </mxCell>
        <mxCell id="a9j6jrNws50YFNVHfmn5-85" value="Air Limbah yang Dihasilkan (1,991 m&lt;sup&gt;3&lt;/sup&gt;/hari)" style="whiteSpace=wrap;html=1;fontSize=11;rounded=1;strokeColor=#FFFFFF;fontColor=#FCFCFC;" vertex="1" parent="1">
          <mxGeometry x="1080" y="437.5" width="90" height="55" as="geometry" />
        </mxCell>
        <mxCell id="a9j6jrNws50YFNVHfmn5-94" value="" style="edgeStyle=orthogonalEdgeStyle;rounded=0;orthogonalLoop=1;jettySize=auto;html=1;strokeColor=#FFFFFF;fontColor=#FCFCFC;" edge="1" parent="1" source="a9j6jrNws50YFNVHfmn5-86" target="a9j6jrNws50YFNVHfmn5-93">
          <mxGeometry relative="1" as="geometry" />
        </mxCell>
        <mxCell id="a9j6jrNws50YFNVHfmn5-86" value="IPAL (1,991 m&lt;sup&gt;3&lt;/sup&gt;/hari)" style="whiteSpace=wrap;html=1;fontSize=11;rounded=1;strokeColor=#FFFFFF;fontColor=#FCFCFC;" vertex="1" parent="1">
          <mxGeometry x="1077.5" y="760" width="95" height="60" as="geometry" />
        </mxCell>
        <mxCell id="a9j6jrNws50YFNVHfmn5-87" value="" style="edgeStyle=orthogonalEdgeStyle;rounded=0;orthogonalLoop=1;jettySize=auto;html=1;entryX=0;entryY=0.5;entryDx=0;entryDy=0;strokeColor=#66B2FF;" edge="1" parent="1" source="a9j6jrNws50YFNVHfmn5-46" target="a9j6jrNws50YFNVHfmn5-85">
          <mxGeometry relative="1" as="geometry">
            <mxPoint x="1000" y="315" as="sourcePoint" />
            <mxPoint x="1090" y="355" as="targetPoint" />
            <Array as="points">
              <mxPoint x="1050" y="265" />
              <mxPoint x="1050" y="465" />
            </Array>
          </mxGeometry>
        </mxCell>
        <mxCell id="a9j6jrNws50YFNVHfmn5-88" value="" style="edgeStyle=orthogonalEdgeStyle;rounded=0;orthogonalLoop=1;jettySize=auto;html=1;entryX=0;entryY=0.5;entryDx=0;entryDy=0;exitX=1;exitY=0.5;exitDx=0;exitDy=0;strokeColor=#66B2FF;" edge="1" parent="1" source="a9j6jrNws50YFNVHfmn5-56" target="a9j6jrNws50YFNVHfmn5-85">
          <mxGeometry relative="1" as="geometry">
            <mxPoint x="1000" y="275" as="sourcePoint" />
            <mxPoint x="1090" y="475" as="targetPoint" />
            <Array as="points">
              <mxPoint x="1050" y="345" />
              <mxPoint x="1050" y="465" />
            </Array>
          </mxGeometry>
        </mxCell>
        <mxCell id="a9j6jrNws50YFNVHfmn5-89" value="" style="edgeStyle=orthogonalEdgeStyle;rounded=0;orthogonalLoop=1;jettySize=auto;html=1;entryX=0;entryY=0.5;entryDx=0;entryDy=0;exitX=1;exitY=0.5;exitDx=0;exitDy=0;strokeColor=#66B2FF;" edge="1" parent="1" source="a9j6jrNws50YFNVHfmn5-60" target="a9j6jrNws50YFNVHfmn5-85">
          <mxGeometry relative="1" as="geometry">
            <mxPoint x="1070" y="410" as="sourcePoint" />
            <mxPoint x="1090" y="475" as="targetPoint" />
            <Array as="points">
              <mxPoint x="1050" y="420" />
              <mxPoint x="1050" y="465" />
            </Array>
          </mxGeometry>
        </mxCell>
        <mxCell id="a9j6jrNws50YFNVHfmn5-90" value="" style="edgeStyle=orthogonalEdgeStyle;rounded=0;orthogonalLoop=1;jettySize=auto;html=1;entryX=0;entryY=0.5;entryDx=0;entryDy=0;exitX=1;exitY=0.5;exitDx=0;exitDy=0;strokeColor=#66B2FF;" edge="1" parent="1" source="a9j6jrNws50YFNVHfmn5-64" target="a9j6jrNws50YFNVHfmn5-85">
          <mxGeometry relative="1" as="geometry">
            <mxPoint x="1000" y="430" as="sourcePoint" />
            <mxPoint x="1090" y="475" as="targetPoint" />
            <Array as="points">
              <mxPoint x="990" y="490" />
              <mxPoint x="1050" y="490" />
              <mxPoint x="1050" y="465" />
            </Array>
          </mxGeometry>
        </mxCell>
        <mxCell id="a9j6jrNws50YFNVHfmn5-91" value="" style="edgeStyle=orthogonalEdgeStyle;rounded=0;orthogonalLoop=1;jettySize=auto;html=1;entryX=0;entryY=0.5;entryDx=0;entryDy=0;exitX=1;exitY=0.5;exitDx=0;exitDy=0;strokeColor=#66B2FF;" edge="1" parent="1" source="a9j6jrNws50YFNVHfmn5-70" target="a9j6jrNws50YFNVHfmn5-85">
          <mxGeometry relative="1" as="geometry">
            <mxPoint x="1000" y="505" as="sourcePoint" />
            <mxPoint x="1090" y="475" as="targetPoint" />
            <Array as="points">
              <mxPoint x="1050" y="615" />
              <mxPoint x="1050" y="465" />
            </Array>
          </mxGeometry>
        </mxCell>
        <mxCell id="a9j6jrNws50YFNVHfmn5-92" value="" style="edgeStyle=orthogonalEdgeStyle;rounded=0;orthogonalLoop=1;jettySize=auto;html=1;entryX=0;entryY=0.5;entryDx=0;entryDy=0;exitX=1;exitY=0.5;exitDx=0;exitDy=0;strokeColor=#66B2FF;" edge="1" parent="1" source="a9j6jrNws50YFNVHfmn5-74" target="a9j6jrNws50YFNVHfmn5-85">
          <mxGeometry relative="1" as="geometry">
            <mxPoint x="1010" y="515" as="sourcePoint" />
            <mxPoint x="1100" y="485" as="targetPoint" />
            <Array as="points">
              <mxPoint x="1050" y="690" />
              <mxPoint x="1050" y="465" />
            </Array>
          </mxGeometry>
        </mxCell>
        <mxCell id="a9j6jrNws50YFNVHfmn5-96" value="" style="edgeStyle=orthogonalEdgeStyle;rounded=0;orthogonalLoop=1;jettySize=auto;html=1;strokeColor=#FFFFFF;fontColor=#FCFCFC;" edge="1" parent="1" source="a9j6jrNws50YFNVHfmn5-93" target="a9j6jrNws50YFNVHfmn5-95">
          <mxGeometry relative="1" as="geometry" />
        </mxCell>
        <mxCell id="a9j6jrNws50YFNVHfmn5-93" value="Bak Tampung (1,991 m&lt;sup&gt;3&lt;/sup&gt;/hari)&amp;nbsp;" style="whiteSpace=wrap;html=1;fontSize=11;rounded=1;strokeColor=#FFFFFF;fontColor=#FCFCFC;" vertex="1" parent="1">
          <mxGeometry x="890" y="760" width="120" height="60" as="geometry" />
        </mxCell>
        <mxCell id="a9j6jrNws50YFNVHfmn5-98" value="" style="edgeStyle=orthogonalEdgeStyle;rounded=0;orthogonalLoop=1;jettySize=auto;html=1;strokeColor=#FFFFFF;fontColor=#FCFCFC;" edge="1" parent="1" source="a9j6jrNws50YFNVHfmn5-95" target="a9j6jrNws50YFNVHfmn5-97">
          <mxGeometry relative="1" as="geometry" />
        </mxCell>
        <mxCell id="a9j6jrNws50YFNVHfmn5-95" value="Penyiraman RTH (1,991 m&lt;sup&gt;3&lt;/sup&gt;/hari)" style="whiteSpace=wrap;html=1;fontSize=11;rounded=1;strokeColor=#FFFFFF;fontColor=#FCFCFC;" vertex="1" parent="1">
          <mxGeometry x="720" y="760" width="120" height="60" as="geometry" />
        </mxCell>
        <mxCell id="a9j6jrNws50YFNVHfmn5-97" value="Hbis Terpakai (1,991 m&lt;sup&gt;3&lt;/sup&gt;/hari)" style="whiteSpace=wrap;html=1;fontSize=11;rounded=1;strokeColor=#FFFFFF;fontColor=#FCFCFC;" vertex="1" parent="1">
          <mxGeometry x="520" y="760" width="120" height="60" as="geometry" />
        </mxCell>
      </root>
    </mxGraphModel>
  </diagram>
</mxfile>
